<svg xmlns="http://www.w3.org/2000/svg" viewBox="0 0 1714 1782">
  <path d="M836.5 1.2c-4.9.5-9.3 1.2-9.6 1.6s-1.8 16.4-3.3 35.7c-1.5 19.2-3.1 35.9-3.5 36.9-.5 1.4-3.1-5.2-9-23.5-14.2-44.1-14.3-44.2-17.3-45.7-3.9-1.8-20.6.1-23.2 2.7-1.5 1.6-2.7 8-6.5 37-2.5 19.4-5 35.2-5.6 35.2-.5 0-5.1-15.6-10.3-34.8-5.1-19.1-9.7-35.1-10-35.4-.4-.3-6.1-.1-12.7.5-9.6.9-12 1.4-11.9 2.6.1 1.5 27.6 87.2 29.6 92.3 1.6 4.2 4.4 4.8 16.1 3.7 13.2-1.3 14.4-1.6 15.7-4.1.9-1.6 9-59 9-63.6 0-.7.4-1.3.9-1.3s4.8 12 9.5 26.7c11.1 34.4 11.4 35.1 13.8 36.4 1.3.7 5.2.9 11.2.4 10.5-.8 15.9-2 17.5-3.8.9-1.2 13.1-91.9 13.1-98.1 0-2.9.7-2.9-13.5-1.4m50.1 27.9c-1.1 10.4-3.8 73-3.2 73.6.3.4 5.3.8 11 1.1l10.3.5.6-7.4c.4-4.1.9-13.3 1.2-20.4.3-7.2.8-16 1.1-19.7l.6-6.8 4-1.1c2.2-.5 8.2-.9 13.3-.7l9.3.3.6-6.5c.3-3.6.6-8.6.6-11.3V26h-6c-6.7 0-10.2 1.4-16.7 6.7l-4.3 3.4V25h-4.9c-2.6 0-7.5-.3-10.9-.6l-6-.7zm90.1 4.3c-4.8 1.8-6.3 3-9.2 8.1-4.5 7.7-10.1 37.7-9.3 50.2.6 8.3 3.6 14.1 8.8 16.8 4.5 2.3 38.3 7.7 45.3 7.3 4.6-.4 6.3-1 8.7-3.3 3.2-3.1 6.6-10.9 7.2-16.5l.3-3.4-7-1.3c-10.8-1.8-13.5-1.7-13.5.8 0 4-1.8 5.9-5.8 5.9-4.1 0-19.7-2.6-21.2-3.5-1.2-.7-1.3-14.4-.2-16.2.5-.8 6.9-.1 24.2 2.7 17.9 2.9 23.8 3.5 24.7 2.7.6-.7 1.9-7.2 2.8-14.5 1.9-15.1 1.2-20.9-3.2-25.6-3.9-4.2-7.5-5.3-28-8.6-21.6-3.4-19.7-3.3-24.6-1.6m22.9 18.1c13 2.1 12.4 1.7 12.4 8.9 0 3.3-.4 6.6-.8 7.3-.6.9-3.9.7-14.2-.9-7.4-1.1-13.7-2.2-13.8-2.4-.8-.6 2.1-11.5 3.4-12.9 1.9-1.8 1.8-1.8 13 0m-431.8-4.3c-4.9 1.6-8.8 3.3-8.8 3.6 0 1 31.8 99.3 32.2 99.7.3.4 19.9-5.4 20.7-6.1.1-.1-1.8-6.8-4.3-14.7-2.5-8-4.6-14.7-4.6-15s1-.7 2.1-1c1.6-.4 5.6 2 16.3 10.2 7.7 5.9 14.7 11.1 15.4 11.5 1.1.7 22.8-5.8 24.4-7.3.3-.3-8.5-7.2-19.7-15.4L621.1 98l2.3-6.3c6.4-17.5 12.8-36.8 12.3-37.3-.7-.8-19.8 5.5-21.3 7-.7.6-3.6 8.5-6.6 17.6-6 18.6-6.2 19-8.7 19-1.4 0-3.4-5.3-10.4-27-7.1-21.7-9.1-27-10.5-26.9-.9 0-5.6 1.4-10.4 3.1m511.7 5.5c-6.3 1.6-11 8.9-14.5 22.8-3.5 13.7-1.4 17.1 15.3 24 22.5 9.4 22.7 9.5 22.7 12.5 0 5.1-2 9-4.6 9-2.4 0-21.5-5.3-23.4-6.5-.5-.3-.7-2.5-.4-4.8l.6-4.3-9.2-2.6-9.1-2.6-1.1 2.7c-.5 1.4-1.2 6-1.5 10.1-.9 12.5 0 13.1 34.4 23 7.8 2.2 15.6 4 17.5 4 7.6 0 12.7-6.5 16.8-21.1 4.4-15.8 2.5-19.4-13.2-25.9-21.1-8.8-24.8-10.7-24.8-13 0-2.9 2.7-9 4-9 1.7 0 19.2 5.1 21.4 6.2 1.5.8 1.7 1.7 1.2 4.8s-.3 4 1.1 4.4c1 .2 5.1 1.4 9.2 2.6 5.5 1.6 7.6 1.9 8.1 1 .4-.7 1.3-4.4 2-8.4 1-6.1 1-7.7-.3-10.8-2-4.9-5.3-6.4-26.7-12.6-19.3-5.5-22.6-6.2-25.5-5.5m101.5 20c-1.8 4.3-3.5 8.2-3.9 8.6-.5.4-3.2-.1-6.1-1.3-2.9-1.1-5.3-1.9-5.5-1.8-.1.2-1.5 3.8-3.3 8l-3.1 7.8 4.6 2c2.5 1.1 4.9 2 5.4 2 1.5 0 1.2 1-6.7 20.1-9.2 22.4-11.4 28.4-11.4 31.8 0 4.3 3.5 8.8 9.1 11.6 5.7 2.9 18.6 6.5 23.3 6.5 2.9 0 3.3-.5 5.4-5.8 1.2-3.2 2.2-6.2 2.2-6.7 0-.6-3.3-2.4-7.3-4-5.3-2.3-7.3-3.6-7.5-5.1-.2-1.2 2.9-9.9 6.9-19.5 3.9-9.6 7.3-17.9 7.6-18.6.3-.8 3.1 0 8.9 2.4 4.7 1.9 8.6 3.4 8.8 3.2 1.3-1.5 6.4-15.4 5.8-15.9-.4-.4-3.8-1.9-7.7-3.5-3.8-1.5-7.4-3.1-7.8-3.5s.9-4.6 2.9-9.4 3.5-8.8 3.3-9c-.8-.6-19-7.6-19.8-7.6-.5 0-2.4 3.5-4.1 7.7m60.7 46.5c-20.1 39.4-31.7 62.6-31.7 63.6 0 .8 19 10.6 19.5 10 1-1.2 47.6-94 47.4-94.2-1.3-1-18.3-9.6-18.9-9.6-.5 0-7.8 13.6-16.3 30.2m-737.7-17c-8.5 4-17.2 8.4-19.4 9.7-4.4 2.8-7.5 8.7-7.6 14.4 0 5.5 4.2 17.2 11.6 32.4 10.2 21.2 17.6 27.2 29.3 23.7 7.8-2.3 34.2-15.1 37.3-18.1 3.5-3.4 5.2-8.4 4.3-13.1-1.1-5.7-5.8-17.2-7.1-17.2-.6 0-5 1.8-9.7 4l-8.6 3.9 1.9 4.3c3.2 7.1 3 7.5-7.6 12.4-5.3 2.5-10.3 4.4-11.2 4.2-3.2-.6-19.1-34.1-17.8-37.5.3-.8 4.9-3.5 10.2-6 9-4.2 9.6-4.4 11.4-2.8 1 .9 2.4 3 3 4.6.7 1.6 1.6 2.9 2 2.9 2 0 18-8 18-9.1 0-2.3-6.2-12.7-9.6-16-2.9-2.8-4.2-3.3-9.1-3.6-5.4-.3-6.8.1-21.3 6.9m802.7 19.7c-2.6 4.4-4.7 8.2-4.7 8.4 0 .7 20.1 12.9 20.5 12.5.9-1.4 9.5-16 9.5-16.2 0-.3-3.7-2.6-8.2-5.2-4.6-2.6-9.2-5.3-10.3-6-1.9-1.3-2.4-.8-6.8 6.5m-30.1 52.7c-15.9 26.8-19.7 33.8-18.5 34.5 8.1 5.3 17.2 10 17.8 9.3 1.4-1.6 40.2-66.7 39.9-66.9-1.3-1.2-17.5-10.5-18.3-10.5-.5 0-10 15.1-20.9 33.6m-850.1-31.5c-1.6.6-10.6 5.9-20 11.7-18.1 11.4-21.5 14.7-21.5 21 0 3.8 5.7 17.2 7.3 17.2.5 0 4.7-2.3 9.3-5.1l8.3-5.1-1.5-3c-.9-1.6-1.3-3.6-1-4.4.7-1.8 15.6-11.4 17.7-11.4.8 0 2.4 1 3.5 2.2 2.5 2.8 7.7 10.9 7.2 11.2-.2.1-3.8 1.9-8.1 3.9-10 4.7-21.2 12.2-24.4 16.3-5.1 6.8-3.8 14.7 4.5 26.9 5.5 8 11.5 12 16.7 10.9 4.2-.8 21-11 23.9-14.5 1.3-1.5 3.2-4.9 4.1-7.4 1-2.5 2.1-4.5 2.5-4.5.5 0 1.6 1.3 2.7 3l1.9 2.9 8.9-5.5c5-3 8.9-6.1 8.9-6.8-.1-1.5-27.2-45.3-32.3-52.3-1.7-2.3-4.2-5-5.5-5.9-3.2-2-9.2-2.6-13.1-1.3m19.4 49.9 3.1 5-2.6 4c-2.9 4.3-13.8 12-17.2 12-2.5 0-8.2-7.1-8.2-10.2 0-1.1 1.2-3.1 2.8-4.4 3.5-3.1 16.4-11.2 17.9-11.3.6-.1 2.5 2.2 4.2 4.9m376.2-37.9c-133.1 6.1-264.5 49.3-375.4 123.6-126.6 84.7-224.3 205.8-279.4 346.2a740.8 740.8 0 0 0-1 538.1c59.5 153.4 171.7 285.6 313.7 369.7A739 739 0 0 0 857 1636c233.8 0 452.2-109.7 593.5-298.2 115.7-154.3 166.3-347.9 140.9-539.8a737 737 0 0 0-115.9-310c-145-219.2-391.6-344.8-653.4-332.9M898 203c176.2 10.7 339.1 86.5 461.3 214.8 86.3 90.6 147.4 204.6 174.2 325.1 6.7 30.4 10.6 54.7 14.1 89.1 2.1 21.2 3 81.4 1.5 105.1-5.1 80-22.5 154.6-53.2 227.5-8.8 20.9-30 62.8-41.6 82.4-78.2 131.2-193.5 231.2-333.8 289.5-166.6 69.2-360.4 69.2-527 0-140.3-58.3-255.6-158.3-333.8-289.5-11.6-19.6-32.8-61.5-41.6-82.4-30.7-72.9-48.1-147.5-53.2-227.5-1.5-23.7-.6-83.9 1.5-105.1 9.6-93.9 33-174.1 74-253.5C352.6 361.1 570.8 218.1 813 203.1c19.6-1.2 65.9-1.2 85-.1"/>
  <path d="M838 235.7c-113 3.1-225.8 36.4-322.5 95.1-128.2 77.9-226.5 197-277.7 336.7-50.1 136.6-53.7 287.1-10.3 425.1 16.9 53.5 42.9 109.6 71.7 154.7l5 7.7 4-5.7c2.2-3.2 5.7-7.6 7.7-9.8s7.5-9.1 12.1-15.2c9.3-12.6 15-17.4 18.1-15.5 1 .7 2.2 1.2 2.6 1.2 1.5 0 27.1-26.2 35.1-36 4.8-5.8 14.1-17 20.8-25s14.8-18.8 17.9-24c14.4-23.8 39.1-46.8 63.4-59 10.6-5.3 24.7-10.3 37.6-13.5 6.1-1.5 12.7-3.8 14.8-5.2 4.1-2.6 6.7-7.3 6.7-12 0-4.2-9.1-23.2-28-58.3-26.1-48.7-32.5-63.2-39.6-90.5-3.9-14.5-5.8-19.7-13.4-35.5-18.2-38.2-23.8-60.3-22.7-90.8.6-16.3 1.6-22.1 6.4-34.4 2.4-6.4 3.4-7.5 18.6-21.5 23.2-21.5 40.8-40.4 82.2-88.2 27.9-32.2 44.2-47.4 67.7-63.1 30.8-20.5 68.7-28.9 106.2-23.6 6.1.9 10.6 1.1 11.6.6 3.7-2 13.5-13.8 16.1-19.5 1.7-3.5 3.9-11.6 5.4-19.5 3.6-18.4 6.2-26.4 11-33.4 14.5-21.5 52.7-25.5 84.8-8.9 5.8 3 11.2 6.8 15.5 10.9 3.7 3.5 6.9 6 7.3 5.6l5.3-6.9c5.7-7.4 13-12.6 26.7-19.3 14.5-7 23.6-9.2 37.9-9.2 31.1.1 52.2 13.8 60.7 39.6 2.4 7.3 2.7 9.5 2.7 23.6 0 12.7-.4 17.1-2.1 24-1.2 4.7-2.4 9.2-2.8 10.1-.5 1.2 1.7 2.5 10.7 5.9 26.7 10.2 51.9 25.1 74.8 44.3 17.5 14.6 49.8 48 65.5 67.7 31.7 39.9 67.9 87.5 78.1 103 3.9 5.8 10.5 15.7 14.8 22 8.5 12.6 15.9 26.9 17.5 34 1.3 5.7 1.4 13.2.1 17.9-.5 2-1.7 7-2.6 11.1s-4 13.6-7 21c-5.3 13.6-5.9 16.3-9 39-2 15-5.9 31.4-11.2 47-5.4 15.6-8.5 23.2-21.9 53.5-12.8 28.8-14.3 32.8-14.3 39.2 0 8.4 3.6 12.5 13 14.7 23.6 5.4 50.2 20.5 66.1 37.3 3.5 3.7 11.2 13.6 17.2 22 14.7 20.8 21.1 28.6 32.5 39.4 10.7 10.1 21.7 16.5 27.9 16 5.8-.4 17.3 6.1 30.6 17.3 3.5 3 7.6 5.8 9 6.1 4.2 1.1 10.4 7.1 12.3 12 2.2 5.8 1.5 20.9-1.5 31.5-5.5 19.3-5.4 19-4.7 29.3l.8 9.9 6.3-9.4c79.4-118.8 118.2-267.7 107.4-412.8-15-203.6-124.6-389.5-295.9-502.3-89.4-58.8-192.2-94.9-299.5-105.2-16-1.5-59-3.6-67.5-3.3-2.5.1-8.8.3-14 .5"/>
  <path d="M791.2 548.7c-2.8 2.8-31.2 50.5-33.1 55.6-2.2 5.7.9 7.6 25.4 15.1 18.6 5.6 22.8 6.6 24.8 5.5.8-.5 3.5-4.4 6-8.7 7-12.2 20.7-40 20.7-42.1 0-1-1.8-3.5-3.9-5.4-7.2-6.5-29.2-20.5-34.9-22.2-1.7-.5-2.9.1-5 2.2m75 39.8c-1 .8-3.9 4.7-6.3 8.7-6 10.1-19.2 36.4-20.9 41.6-1.7 5.3-2.2 5 16.5 12.6 11.4 4.6 14.6 6.3 15 8 .3 1.1 1.2 7.9 2 15 .9 7.1 1.9 13.5 2.4 14.3.6 1.1 3.1-2.1 9.3-11.8 12.1-19.2 30.8-51.3 30.8-53.1 0-1.5-19.7-18.4-34-29.1-9-6.8-12-8.1-14.8-6.2"/>
  <path d="M724 628.2c-3.9 4.2-16.4 26.2-55.7 98.3-21.7 39.6-22.3 41.2-18.5 48.5.9 1.9 15.7 19.5 32.7 39 48.5 55.4 60.2 69.2 76 89.6 8.2 10.4 17.5 22.2 20.7 26.2 6.7 8.4 9.3 13.2 10.7 19.3 1.2 5.5-2.3 19.7-21.4 85.4-24.4 84-32.3 113.8-35 131.4-2 13.3-1.9 17 .4 19.5 1 1.2 2.6 4.8 3.6 8.1 2.8 10.4 8.5 24.8 11.6 29.6 3.8 6 14.9 16.6 22.1 21.3 8.6 5.4 20.2 10.2 33.5 13.7 19.2 5.1 21.4 6 24.1 9.9 2 2.9 2.3 4.3 1.8 8.4-.3 2.8-1.1 5.5-1.8 6.2-3.1 2.8-21.5 7.3-38.5 9.3-10.3 1.3-18.5.4-29.8-3-10.4-3.1-32-3.6-57.7-1.4-38.5 3.3-53.2-.1-56.8-13.4-1.4-5.2-.7-9.6 3-21.1 1.6-4.7 4.6-16 6.9-25.2 4.3-18 7.2-25.4 10.2-26.3 2.6-.9 5.6-7 8-16.3 4.4-17.3 5-73.7 1-95.7-2.4-13.1-2.6-20.6-.6-34.2 4.1-28.9 13.7-53.3 26.8-68 3.1-3.4 5.8-7.1 6.2-8.2 1.7-5.5-7.1-13.7-23.9-22.2-13.1-6.7-24.2-13.9-43.5-28.6-6.8-5.2-12.4-9.3-12.6-9.1-.1.2.4 7.3 1.2 15.8 2.2 24.6 7.7 111.4 7.7 123 .1 10.1 0 10.8-3.6 18.4-4.5 9.2-13.2 18.5-24.6 26-4 2.7-21.1 11.7-38 20.1-70 35-137.1 76-152 93-5.7 6.6-8.7 15.3-8.7 25.5 0 7.8.3 9 3.5 15 7.2 13.4 32.9 34.8 46 38.4 8.4 2.3 17.9 6.9 22.3 11 10.5 9.6 3.2 18.2-17.3 20.7-25 3-63.3-3.2-100-16-12.9-4.5-23-6.5-23-4.5 0 1.9 27.2 32.6 44.5 50.3 27.9 28.4 48.9 46.9 77 67.9 134.9 100.9 302.7 145.9 471.5 126.6 120.5-13.8 238.6-63.1 333.9-139.4 21-16.8 37.1-31.3 57.6-51.9l18-18.1h-4.5c-16.3 0-20.8-18.3-11.9-47.9 2.5-8.2 2.6-30.9.3-43.1-1.5-8.2-5.8-21.4-7.6-23.7-.5-.7-3.1-1.9-5.7-2.8-10.3-3.4-15.2-10.7-13.2-19.7 1.3-5.8-.5-9.5-8.9-17.9-11.9-12.1-30.7-22.8-73.5-41.9-82.4-36.9-101.8-49.7-113.2-75.1-3.8-8.4-3.8-8.4-3.6-20.9.1-12 .4-13.5 6.3-35.4 9.6-36 18-72.9 16.8-74.1-.3-.3-6.7 2.4-14.2 6-15 7.2-42.5 18.8-80.7 34l-24.7 9.8 5.3 8.1c10.1 15.6 15.9 29.9 19.2 47.6 2.6 14.4 2.3 43.8-.7 64-2 13.7-2.2 17.7-1.7 35 .7 21.1 2.5 38.6 5.6 54.9 2.2 11.3 2.1 10.9 5.3 12.5 2.6 1.3 6.4 12.8 9.7 29.6 1.1 5.8 3 13.9 4.1 18 3 10.7 2.4 21.6-1.6 29.6l-2.9 5.9-6.5.7c-8.9 1-29.6 0-46.9-2.3-18-2.4-20.2-2.4-37.5.2-18.5 2.8-32.1 2.2-50-2-13.9-3.3-31.3-9-35.2-11.6-5.1-3.3-2-15.4 4.9-18.8 2.2-1.1 8.7-2.4 16.4-3.3 36.1-4.1 59.1-11.6 72.9-23.8 4.4-3.9 5.3-5.2 5.9-9.3.4-2.7 2-8.9 3.6-13.9s2.9-11.2 2.9-13.7c0-9.8-7.7-43.2-16-69.1-9.9-31.1-15.5-57.8-20.5-96.6-1.9-15.1-4.4-34.3-5.6-42.5-1.1-8.3-2.2-20.6-2.3-27.3l-.2-12.4-5.1-4.6c-4-3.7-7.3-8.8-15.8-24.2-5.9-10.7-12.8-22.4-15.3-26-21.7-30.7-83.5-114.6-87.5-118.7-7.2-7.4-14.1-10.7-33.5-15.8-20.3-5.3-29.7-8.7-29.7-10.6 0-.8 3.7-2.8 9.2-4.9 9.8-3.7 13.3-6.2 13.3-9.2 0-1-2.7-7.2-6-13.8-5.5-11-7.5-17.7-5-16.8.6.2 7.4 4.8 15.3 10.4 16 11.3 20.3 13.4 28.3 13.4 6.3 0 37-7.4 51.2-12.3 8.7-3 9.3-3.3 10.3-6.7.6-1.9 1.3-9.6 1.6-17 .7-17.5-.1-19.9-8.2-23.5-6.8-3-66.3-23.8-82.5-28.8-23.9-7.4-42.8-12.7-45.3-12.7-1.4 0-3.6 1-4.7 2.2"/>
  <path d="M929.3 648.7c-10.8 16.9-50.6 83.8-54.4 91.7-4 8.2-4 10.5-.2 12.1 7.4 3 40.3 13.5 42.4 13.5 2.4 0 5.1-3.4 23.1-28.8 22.3-31.2 40.8-58.6 41.5-61.3.8-3.1-40.6-35.9-45.3-35.9-.8 0-4 3.9-7.1 8.7m66.4 50c-7.4 9.2-39.2 53.1-48.5 67-4.3 6.5-7.2 11.8-6.9 12.7.6 1.4 20.2 18.7 25.8 22.7l2.7 1.9 21.3-21.8c23.7-24.1 48.2-50.6 48.7-52.6.2-.7-1.4-3.5-3.5-6.3-5-6.6-30.3-30.3-32.4-30.3-.9 0-4.1 3-7.2 6.7m-166.2 40c-12.7 3.6-17.9 4.6-25.3 4.8-12.2.4-15.9 3.1-8.5 6.2 4.5 1.8 37.6 9.3 41.6 9.3 2.2 0 3.6-1.2 7.7-6.8 5.4-7.3 8.6-14.2 7.7-16.7-1-2.4-5.8-1.7-23.2 3.2"/>
  <path d="M833.3 771.7c-1.5.3-2.3 1.2-2.3 2.5 0 2.7 14.6 23.2 53.9 75.8 31.1 41.7 32.8 44.3 41.9 61.7 5.1 10.1 9.8 18.3 10.3 18.3 2.4 0 55.8-52 75.5-73.6l7.4-8.2 1.5-10.8c2.9-22 4.4-50.8 2.9-58.3-.4-1.7-1.2-3.1-1.9-3.1s-11.1 8.8-23.1 19.6c-26.5 23.8-31.1 27.4-35 27.4-3.8 0-8.6-3.1-25.9-16.9-15.7-12.5-19.7-14.7-40.9-22-28.4-9.8-53.1-14.6-64.3-12.4m492.2-568.5c-12.6 17.2-23 31.6-23 32.1 0 1.3 16.9 13.7 17.6 12.9.3-.4 8.1-10.9 17.3-23.4l16.7-22.7 4.4 1.4c4.2 1.2 12.8 6.8 15.5 10 .7.8 1 2.5.6 3.9-.3 1.3-7.8 12.2-16.6 24.1s-16.2 22-16.3 22.5c-.1.4 3.7 3.8 8.5 7.4l8.6 6.5 18.3-24.6c21.2-28.8 23.3-32.2 22.6-37.6-.7-5.1-2.7-7.9-9.8-13.5-10-7.8-13.2-9.2-21.7-9.2h-7.4l2.6-3.4c1.4-1.9 2.6-3.8 2.6-4.3-.1-.7-15.1-12.3-16.9-13-.3-.2-10.9 13.8-23.6 30.9M322.3 180.3c-4.5 3.4-8.2 6.6-8.3 7 0 .6 59.9 79.6 63.1 83.1.8.9 17.9-11.2 17.9-12.7 0-.9-62.8-83.1-63.8-83.4-.4-.2-4.4 2.5-8.9 6m-46.5 46.5c-4.5 2.6-48.8 43.7-48.8 45.3 0 .6 49.4 53.3 63.9 68.2l4.7 4.8 23.1-22c12.7-12.1 24-23.5 25.2-25.4 3.5-5.6 3.8-11.6.9-17.9-3.1-6.7-12.6-17-18.2-19.7-5-2.5-8.4-2.6-13.3-.6-2 .8-3.8 1.4-4 1.2s.4-2 1.2-4c3.2-7.6.8-14.3-8-23.2-9.8-9.8-18-11.8-26.7-6.7m11.9 26.5c8.3 8.7 8.3 8.5-4.8 20.8l-11.4 10.8-7.2-7.2c-4-3.9-7.3-7.7-7.3-8.3 0-2.1 21.2-21.4 23.6-21.4 1.3 0 4.1 2.1 7.1 5.3m29 29.1c4.3 4.4 6.3 7.3 6.3 9 0 1.8-2.7 5-11.1 12.8-6.1 5.7-11.4 10.4-11.8 10.6-.4.1-4.4-3.8-8.9-8.7l-8.2-8.9 11.2-10.6c8.1-7.7 11.9-10.6 13.7-10.6s4.4 1.9 8.8 6.4m1111.8-33c-8.8 4.1-29.3 25.2-33 33.9-2.1 5-1.9 11.5.4 15.3 2.3 3.7 14.2 15.4 17.5 17.1 1.3.7 5.2 1.6 8.7 2.1l6.4.8-7.6 7.7c-4.1 4.2-8.1 7.7-8.7 7.7-1.8 0-18.2-15-18.2-16.7 0-.8.5-2.3 1-3.3.9-1.7 0-3-6.2-8.9-7-6.6-7.4-6.9-9.2-5.3-3.4 3-7.6 10.5-7.6 13.7 0 5.3 3.1 9.1 19.8 25 17.2 16.3 20.6 18.4 27.4 17.1 1.8-.3 5.6-2.5 8.4-4.8 5.7-4.8 59.4-60.4 59.4-61.6 0-.4-3.4-4.1-7.5-8.2l-7.5-7.4-3 2.9c-3.2 3.1-3.3 3-4.5-4-1-6-2.7-8.5-10.6-15.9-10.7-10.1-16-11.6-25.4-7.2m19.2 25.8c3 2.9 6.4 7 7.5 9.2l2 3.8-3.9 4.2c-10.8 11.7-16.9 17.6-18.1 17.6-3.8 0-15-8.9-17.7-14-2-3.8-.1-7.1 9.8-17.3 10.7-10.9 12.2-11.2 20.4-3.5M208.4 331.8C91.2 468.4 20.4 635.2 4.1 813c-4.6 49.6-4.4 109.6.5 160.5 11.6 122 50.7 243.3 112.2 348.5 56.9 97.4 135.6 185.9 224.1 252.4l13.3 10 2.3-2.9c1.3-1.5 4.1-5.4 6.3-8.5l4-5.6-14.7-11.1c-51.6-39.3-104.5-90.8-145.7-141.8a832 832 0 0 1-179.3-431c-3.9-35.4-4.6-49.2-4.6-93.5.1-46.5 1.2-65.3 6.1-104 20-158.6 85.8-309.6 187.6-430.3 7.3-8.8 14.4-17.2 15.7-18.8l2.4-3-5.8-5.2c-11.1-9.8-8.7-10.2-20.1 3.1m1296.1 11.3c-11 9.3-11 7-.1 20.3 90.4 109.9 153.2 249.2 176.5 391.6 8.2 50.1 10.5 80.1 10.5 136.5s-2.7 91.1-11 139.8c-31.9 188.8-127.1 359.7-269.9 485.1-12.7 11.1-41 34.5-46.3 38.2-.7.4 11.9 16.4 12.8 16.4 1.2 0 22.6-17.1 39.6-31.7 160.4-137.7 263.5-329.3 289.8-538.3 5.4-42.8 6.1-55 6.1-109.5 0-53.4-.7-67.2-5.6-105.5-18.7-148.1-74.2-286.9-162-405.1-12.1-16.3-30.7-39.7-33.2-41.7-1-.8-2.7.1-7.2 3.9M441.8 1565.7c-9.9 8-74.8 64.5-74.8 65.2 0 .5 4.3 3.4 9.5 6.5l9.6 5.7 4.7-3.9c2.6-2.2 5.8-5.2 7.2-6.7s3.7-3.6 5.2-4.6l2.6-1.9 14.4 8.6c7.9 4.7 14.4 8.7 14.5 8.8s-1.1 5.3-2.7 11.6-3 12-3 12.7c0 1.6 20.1 13.6 21 12.6.5-.4 3.8-14.1 7.4-30.3s8.5-38.4 11-49.3c3.2-14.1 4.2-20.5 3.6-22.1-.9-2.5-22.1-15.6-25.1-15.6-.9 0-3.2 1.2-5.1 2.7m6.8 24c-.3 1-2.4 9.2-4.7 18.3s-4.4 16.7-4.5 16.8c-.5.8-19.5-11.1-19.2-12 .6-1.7 26.3-24.7 27.6-24.8.8 0 1.1.7.8 1.7m847-11.2c-14.2 7.5-17.4 10.8-21.1 21.4l-1.2 3.6-2.6-4.3-2.7-4.2-9.2 5.6c-5.1 3.1-9.4 5.7-9.5 5.8-.2.2 39.4 66.6 40.2 67.4.6.7 19.6-10.9 19.1-11.6-.2-.4-6.8-11.3-14.6-24.2s-14.4-23.8-14.7-24.2c-1.4-2.5 14.7-14.8 19.4-14.8 2.8 0 3.4.9 18.7 26.5 7.6 12.6 13.9 23.1 14.1 23.3.1.2 4.5-2.2 9.8-5.3l9.6-5.6-16.5-27.2c-9-15-17.2-28.1-18.1-29.2-5.4-6.2-12.7-7.2-20.7-3m-90.1 49.4c-12.1 4.5-32.2 14.1-35.5 16.9-7.4 6.2-7.5 14.2-.3 32.7 11.2 28.6 19.8 38.6 31.7 37.2 4.7-.5 35.6-13.8 40.2-17.3 7.6-5.7 8.2-15.3 2-31.4-8.7-22.3-17-35.6-24.3-38.6-4.3-1.9-7.8-1.7-13.8.5m10.2 30c6.4 12.7 10.8 24.5 9.9 26.6-.5 1.5-15.3 8.9-20.1 10.1-3 .7-5.2-2.5-11.2-15.8-5.8-13-8.4-20.5-7.7-22.2.8-2.1 17.5-9.5 20.9-9.3 2.8.2 3.4 1 8.2 10.6m-702.2-29.5c-8.2 3.6-18.7 24.7-16.4 32.9 1.3 4.6 2.9 5.9 19.6 15.7 8 4.7 15 9.2 15.6 10.1 1.4 2.2-2.6 10.9-5 10.8-1 0-6.5-2.1-12.3-4.8-9.9-4.5-10.5-4.9-10.4-7.7 0-1.6.4-3.6.8-4.5.5-1.2-1.1-2.3-7.8-5.2-4.7-2-8.9-3.7-9.3-3.7-.5 0-1.9 3.1-3.1 6.8-5.1 15.8-3.5 17.8 23.5 29.4 10.9 4.7 21.2 8.9 23 9.3 4.6.9 9.8-1.9 13.6-7.4 4.5-6.5 9.7-19.8 9.7-24.8 0-5.7-2.8-8.2-21-18.7-15.9-9.1-16.8-10.2-13.5-16.6 2.1-4 3.4-3.8 15.9 1.9l8.8 4.1-.6 4.3-.7 4.3 8.3 3.5c4.5 1.8 8.5 3.5 8.8 3.7.8.3 3.3-6.1 5-12.6 1.4-5.6-.1-10.4-4.1-13.2-3.9-2.8-38.2-17.8-42.2-18.5-1.8-.3-4.6.1-6.2.9m595.5 5.3c-5.8 2-10.6 3.7-10.7 3.8-.2.1 1.1 4.2 2.8 9.2l3 9.1 10.7-3.5c5.9-2 11-3.8 11.3-4.2.9-.8-4.4-17.4-5.6-17.7-.6-.1-5.7 1.4-11.5 3.3m9.5 28.5c-4.9 1.7-9.2 3.2-9.4 3.4-.3.3 23.8 73.5 24.6 74.4.5.6 20.3-6 20.3-6.8 0-2.4-24.7-74.2-25.5-74.1-.5 0-5 1.4-10 3.1m-72.5 0c-4.7 1.1-8.6 2.1-8.8 2.3-.1.1.7 4.1 1.8 8.9s2 9.1 2 9.6-2.5 1.4-5.5 2.1-5.5 1.7-5.5 2.3.9 4.2 1.9 8.1c1.9 7.7 2.1 7.8 10.2 6.1l3.6-.8 4.8 19.9c6.2 26 8 31.5 10.9 34.2 3.3 3.1 9.6 3.7 17.6 1.7 7.1-1.9 19-7.4 19.7-9.2.4-1.2-2.1-12.1-3.1-13.1-.2-.3-3.8.3-7.9 1.3-4.1.9-8.1 1.5-8.9 1.1-1-.3-3.1-7.2-6.1-19.9-2.6-10.6-4.7-19.8-4.7-20.4 0-.7 4-2.2 8.9-3.4l8.8-2.2-2-8.1c-1.1-4.5-2.1-8.3-2.2-8.5-.2-.2-3.9.6-8.3 1.7-4.4 1.2-8.5 2.1-9 2.1s-2-4.1-3.2-9c-2.6-10.4-1.7-10-15-6.8m-446 3.4c-4 3.4-7.6 10.6-10.1 20.2-3.7 14.4-1.8 16.8 21 26.6 8.9 3.7 16.4 7.2 16.7 7.7.8 1.4-.5 8.4-2.1 10.5-1.4 2-.2 2.2-18.3-3.3l-8.3-2.5.3-4.6.3-4.6-9-2.6c-10.4-3.2-9.7-3.7-11.6 7.9-.9 5.6-.9 7.3.5 10.4 2 4.9 6.2 6.8 31.4 14.3 17.9 5.2 19.7 5.6 23.3 4.5 2.7-.8 4.9-2.5 6.9-5.2 3.5-4.8 7.9-17.7 8.7-25.2.5-5.2.4-5.6-2.8-9-2.5-2.7-7.4-5.2-19.1-10.2-8.6-3.7-16.2-7.3-16.9-8.1-1.4-1.7-.4-7.8 1.7-9.8 1.5-1.6 3.3-1.3 18.2 3.6l6.4 2-.6 4.2-.6 4.1 8.2 2.4c4.6 1.4 8.8 2.6 9.5 2.8 1.6.6 4.7-13.8 3.9-18.1-.6-3.3-3.3-6.4-7.1-8.4-4.6-2.3-39.7-12.2-43.4-12.2-2.8 0-4.8.8-7.1 2.6m289.8 7.1-7.8.4v4.8c0 2.7.3 6.9.6 9.5l.7 4.6H907v-5.4c0-2.9-.3-7.4-.6-10l-.7-4.6-4.1.2c-2.2.1-7.6.4-11.8.5m-192.3 16.7c-7.5 3.4-11.1 10.8-15 31.1-4.6 24-4.2 33.3 1.7 40.1 3.7 4.1 7.4 5.3 29.8 9 19.1 3.2 22.3 2.9 28-2.2 5.8-5.2 9.3-16.2 12.5-38.8 2.5-17.1 1.7-23-3.6-29.1-3.7-4.2-5.4-4.7-26.6-8.5-19.2-3.3-22.4-3.5-26.8-1.6m24.4 19.2c5.3.9 10.2 2.1 11 2.7 1.6 1.3 1.1 7.6-2.1 24.7-2.4 13.4-3.9 17-7.1 17-5.5 0-20.3-3.3-21.5-4.9-1.5-1.8-1.2-5.1 1.9-22.9 2.2-13.1 4.1-18.2 6.5-18.2.9 0 6 .7 11.3 1.6m245.1-12.1c-8.5 1.2-17 3-18.8 3.9-5.4 2.8-7.2 6.8-7.2 16.3v8.3h3c1.6 0 6.3-.5 10.5-1.1l7.5-1.1v-3.3c0-1.8.6-3.8 1.4-4.4 1.7-1.4 18.5-3.7 20.8-2.9 1 .4 2 2.9 2.7 7.1 1.8 10.4 2.4 9.7-8.1 9.7-10.7.1-22.9 2-28.2 4.5-5.2 2.5-7.7 6.5-8.3 13.4-.7 7.1 1.1 18 3.8 23.2 3 6 6.5 7.3 17.9 6.5 12.5-.8 17.9-2.5 23.9-7.5l4.9-4.1.9 3.7c.7 2.9 1.4 3.8 2.8 3.6 11.2-1.1 19.5-2.7 19.5-3.8 0-2.4-7.1-54.1-8.1-59.5-3.2-15.6-8.3-17.2-40.9-12.5m23.4 48.1c1.2 8.8 1.1 9-4.6 11.8-3.3 1.5-8 2.8-12.5 3.2-8.1.7-8.6.4-9.6-7.5-.8-6.1 1.9-8.7 9.9-9.6 4.8-.6 12.2-1.7 15.5-2.4.4 0 .9 2 1.3 4.5m-190.5-42.7c-11.1 3.5-15 15.4-15.3 46.1-.1 17.2.7 21 5.6 26.6 1.7 1.9 4.6 3.8 6.7 4.4 5.1 1.4 36.7 3.3 41.8 2.5 8.6-1.3 12.9-7.9 14-21.5l.6-7.7-9.9-.5c-6.5-.3-10.2-.1-10.6.6-.4.6-.8 2.8-.8 4.8 0 6.1-1.6 6.8-12.8 6.1-5.3-.3-10.2-1-10.8-1.5-2.1-1.6-2.4-7-1.4-22.7.7-11 1.4-16.1 2.5-17.8 1.6-2.3 1.9-2.4 10.3-1.8 13.3.9 12.8.7 13.5 6.6.4 2.9.8 5.3.9 5.5.2.1 4.6.6 9.9.9l9.6.8.7-4.5c.8-5.6-.7-15.8-2.9-19.2-2.7-4-6.1-5.6-14.3-6.6-11.7-1.3-34.4-2-37.3-1.1m88.3.8-4.3.4.5 5.7c.3 3.1 1.1 20.3 1.6 38.2.6 17.9 1.3 33.1 1.6 33.9.4 1.1 2.4 1.3 10.7.7 5.6-.4 10.3-.9 10.6-1.1.5-.6-1.8-70.8-2.5-75.3l-.5-3.2-6.7.2c-3.7.1-8.6.3-11 .5"/>
</svg>
