<svg xmlns="http://www.w3.org/2000/svg" xml:space="preserve" overflow="hidden" height="144" viewBox="0 0 139 144">
  <g fill="#f5f4f4">
    <path d="M67.84.1c-.4.04-.76.1-.78.13s-.15 1.32-.27 2.88-.25 2.9-.28 2.98c-.04.12-.25-.42-.73-1.9C64.63.63 64.62.62 64.38.5c-.32-.14-1.68 0-1.89.22-.12.13-.22.65-.52 2.99-.2 1.57-.41 2.84-.46 2.84-.04 0-.41-1.26-.83-2.8a62 62 0 0 0-.81-2.87c-.04-.02-.5 0-1.03.04-.78.07-.98.11-.97.21 0 .12 2.24 7.05 2.4 7.46.13.34.36.39 1.3.3 1.08-.1 1.17-.13 1.28-.33.07-.13.73-4.77.73-5.14q0-.1.07-.1c.04 0 .4.96.77 2.15.9 2.78.93 2.84 1.12 2.94q.16.09.91.03c.85-.06 1.29-.16 1.42-.3.07-.1 1.06-7.43 1.06-7.93 0-.23.06-.23-1.1-.11m4.07 2.25c-.09.84-.3 5.9-.26 5.95.03.03.43.06.9.09l.83.04.05-.6.1-1.65.08-1.59.05-.55.33-.09c.17-.04.66-.07 1.07-.06l.76.03.05-.53c.02-.29.05-.7.05-.9V2.1h-.49c-.54 0-.83.11-1.35.54l-.35.28v-.9h-.4c-.21 0-.6-.02-.88-.05l-.5-.05Zm7.3.35c-.38.14-.5.24-.74.65-.36.63-.82 3.05-.75 4.06q.08 1.02.71 1.36c.37.18 3.1.62 3.67.59.38-.03.51-.08.71-.27.26-.25.53-.88.58-1.33l.03-.28-.57-.1c-.88-.15-1.1-.14-1.1.06q.01.49-.46.48a10 10 0 0 1-1.72-.28c-.1-.06-.11-1.17-.02-1.31.04-.07.56-.01 1.96.22 1.45.23 1.93.28 2 .21a5 5 0 0 0 .23-1.17c.16-1.22.1-1.69-.26-2.07-.31-.34-.6-.43-2.27-.7-1.75-.27-1.6-.26-2-.12m1.86 1.46c1.06.17 1.01.14 1.01.72a2 2 0 0 1-.07.6c-.04.06-.31.05-1.15-.08-.6-.1-1.1-.18-1.12-.2-.06-.04.17-.93.28-1.04.15-.14.15-.14 1.05 0m-35.01-.35c-.4.13-.72.27-.72.3 0 .08 2.58 8.02 2.61 8.05s1.62-.43 1.68-.5c.01 0-.14-.54-.35-1.18l-.37-1.21q.02-.05.17-.08c.13-.03.46.16 1.32.82l1.25.93a9 9 0 0 0 1.98-.59c.03-.02-.69-.58-1.6-1.24l-1.65-1.2.19-.5a30 30 0 0 0 1-3.01 7 7 0 0 0-1.73.56c-.06.05-.3.69-.54 1.42-.49 1.5-.5 1.54-.7 1.54-.12 0-.28-.43-.85-2.18S47 3.56 46.9 3.56c-.07 0-.45.12-.84.25m41.5.45q-.77.18-1.18 1.84c-.29 1.1-.12 1.38 1.24 1.94 1.82.76 1.84.77 1.84 1.01 0 .41-.16.73-.37.73s-1.75-.43-1.9-.53c-.04-.02-.06-.2-.03-.39l.04-.34-.74-.21-.74-.21-.09.22c-.04.1-.1.48-.12.81-.07 1.01 0 1.06 2.79 1.86.63.18 1.26.32 1.42.32.62 0 1.03-.52 1.36-1.7.36-1.28.2-1.57-1.07-2.1C88.3 6.82 88 6.66 88 6.47c0-.23.22-.72.32-.72.14 0 1.56.4 1.74.5.12.06.14.14.1.39s-.03.32.09.35l.74.21c.45.13.62.16.66.08.03-.05.1-.35.16-.68.08-.49.08-.62-.02-.87-.17-.4-.43-.52-2.17-1.02-1.56-.44-1.83-.5-2.07-.44m8.24 1.61c-.15.35-.29.67-.32.7s-.26 0-.5-.1l-.44-.15-.27.65-.25.63.37.16c.2.09.4.16.44.16.12 0 .1.08-.54 1.62-.75 1.81-.93 2.3-.93 2.57 0 .35.29.71.74.94.46.23 1.5.53 1.89.53.23 0 .27-.04.44-.47.1-.26.18-.5.18-.54s-.27-.2-.6-.33c-.43-.18-.59-.29-.6-.41-.02-.1.23-.8.56-1.58l.61-1.5q.03-.1.72.2c.38.15.7.27.72.25.1-.12.52-1.24.47-1.28a5 5 0 0 0-.63-.28c-.3-.12-.6-.25-.63-.29s.07-.37.24-.76c.16-.38.28-.7.26-.72-.06-.05-1.54-.62-1.6-.62-.04 0-.2.29-.33.62m4.92 3.76a125 125 0 0 0-2.57 5.14c0 .07 1.54.86 1.58.81.08-.1 3.86-7.6 3.84-7.61-.1-.08-1.48-.78-1.53-.78-.04 0-.63 1.1-1.32 2.44M40.87 8.26c-.69.32-1.4.68-1.57.78-.36.23-.6.7-.62 1.17 0 .44.34 1.39.94 2.61.83 1.72 1.43 2.2 2.38 1.92.63-.19 2.77-1.22 3.02-1.46.29-.28.43-.68.35-1.06-.09-.46-.47-1.4-.57-1.4-.05 0-.4.15-.79.33l-.7.32.16.34c.26.58.24.61-.62 1-.43.2-.83.36-.9.35-.27-.05-1.56-2.76-1.45-3.03.02-.07.4-.29.83-.49.73-.34.78-.36.92-.23.08.08.2.25.24.38q.1.21.17.23c.16 0 1.46-.65 1.46-.74 0-.18-.5-1.02-.78-1.29-.24-.22-.34-.26-.74-.29-.44-.02-.55 0-1.73.56m65.1 1.6-.38.67c0 .06 1.63 1.04 1.66 1 .07-.1.77-1.28.77-1.3s-.3-.21-.66-.42l-.84-.48c-.15-.11-.2-.07-.55.52m-2.44 4.26c-1.3 2.16-1.6 2.73-1.5 2.79.65.43 1.4.8 1.44.75.11-.13 3.26-5.4 3.24-5.4-.1-.1-1.42-.86-1.49-.86-.04 0-.8 1.22-1.7 2.72M34.6 11.56c-.13.05-.86.48-1.62.95-1.47.92-1.75 1.19-1.75 1.7 0 .3.46 1.39.6 1.39.03 0 .38-.19.75-.42l.67-.4-.12-.25c-.07-.13-.1-.3-.08-.36a5 5 0 0 1 1.43-.92c.07 0 .2.08.29.18.2.23.62.88.58.9-.01.01-.3.16-.66.32-.8.38-1.71.99-1.97 1.32-.42.55-.31 1.19.36 2.17q.7 1 1.36.88c.34-.06 1.7-.89 1.93-1.17.1-.12.26-.4.34-.6s.17-.36.2-.36q.07.02.22.24l.15.24.72-.45c.4-.24.73-.5.73-.55a74 74 0 0 0-2.62-4.22c-.14-.19-.34-.4-.45-.48a1.5 1.5 0 0 0-1.06-.1m1.57 4.03.25.4-.2.32c-.24.35-1.13.97-1.4.97-.2 0-.67-.57-.67-.82 0-.09.1-.25.23-.36.28-.25 1.33-.9 1.45-.91.05 0 .2.18.34.4m30.5-3.07a60.2 60.2 0 0 0-53.1 37.96 59.7 59.7 0 0 0-.07 43.49 60.1 60.1 0 0 0 104.14 14.13 59.5 59.5 0 0 0 2.03-68.68 60.1 60.1 0 0 0-53-26.9m6.16 3.87a56 56 0 0 1 37.41 17.36 56 56 0 0 1 15.28 33.47c.17 1.72.24 6.58.12 8.5a56 56 0 0 1-4.32 18.38 74 74 0 0 1-3.37 6.66 56.5 56.5 0 0 1-27.07 23.4 56.5 56.5 0 0 1-42.74 0 56.5 56.5 0 0 1-27.07-23.4 74 74 0 0 1-3.37-6.66 56 56 0 0 1-4.32-18.38 82 82 0 0 1 .12-8.5 55 55 0 0 1 6-20.48A56.4 56.4 0 0 1 65.94 16.4c1.6-.1 5.35-.1 6.9 0"/>
    <path d="M67.96 19.05a53.5 53.5 0 0 0-48.67 34.9 53.3 53.3 0 0 0-.84 34.34 55 55 0 0 0 5.81 12.5l.41.62.32-.46c.18-.26.47-.61.63-.79s.6-.73.98-1.23q1.11-1.5 1.47-1.25c.08.06.18.1.2.1.13 0 2.2-2.12 2.85-2.91l1.7-2.02c.54-.65 1.2-1.52 1.44-1.94a13.5 13.5 0 0 1 5.14-4.77c.86-.43 2-.83 3.05-1.09a5 5 0 0 0 1.2-.42c.34-.21.55-.59.55-.97 0-.34-.74-1.87-2.27-4.71-2.12-3.94-2.64-5.1-3.21-7.31a13 13 0 0 0-1.1-2.87c-1.47-3.09-1.92-4.87-1.83-7.34a7 7 0 0 1 .52-2.78c.2-.52.27-.6 1.5-1.74 1.89-1.73 3.31-3.26 6.67-7.12 2.26-2.6 3.59-3.83 5.5-5.1a12.5 12.5 0 0 1 8.6-1.91 3 3 0 0 0 .94.05 5 5 0 0 0 1.31-1.58c.14-.28.32-.93.44-1.57.29-1.49.5-2.14.9-2.7 1.17-1.74 4.26-2.06 6.87-.72q.72.37 1.25.88c.3.28.56.48.6.45l.43-.56a5.6 5.6 0 0 1 2.16-1.56 6 6 0 0 1 3.08-.74c2.52 0 4.23 1.12 4.92 3.2.2.6.22.77.22 1.9a7 7 0 0 1-.4 2.76c-.04.1.14.2.87.48q3.25 1.25 6.06 3.58a50 50 0 0 1 5.31 5.47c2.58 3.23 5.51 7.07 6.34 8.32l1.2 1.78a11 11 0 0 1 1.42 2.75c.1.46.11 1.07 0 1.45l-.2.9c-.08.32-.33 1.1-.57 1.69-.43 1.1-.48 1.32-.73 3.15a20 20 0 0 1-.91 3.8 47 47 0 0 1-1.78 4.32c-1.03 2.33-1.16 2.65-1.16 3.17 0 .68.3 1.01 1.06 1.19a11.6 11.6 0 0 1 5.36 3.01c.28.3.9 1.1 1.4 1.78a18 18 0 0 0 2.63 3.18c.87.82 1.76 1.34 2.26 1.3.47-.04 1.4.49 2.48 1.4.29.24.62.46.73.49.34.09.85.57 1 .97.18.47.12 1.69-.12 2.54-.45 1.56-.44 1.54-.38 2.37l.06.8.51-.76a53.5 53.5 0 0 0 8.71-33.36 53.4 53.4 0 0 0-24-40.59 53.6 53.6 0 0 0-24.28-8.5 82 82 0 0 0-5.48-.26z"/>
    <path d="M64.16 44.34a58 58 0 0 0-2.68 4.5c-.18.45.07.6 2.06 1.21 1.5.46 1.85.54 2.01.45.07-.04.28-.36.49-.7.56-1 1.68-3.24 1.68-3.4 0-.09-.15-.3-.32-.44a14 14 0 0 0-2.83-1.8c-.14-.04-.24.01-.4.18m6.08 3.22a4 4 0 0 0-.52.7c-.48.81-1.55 2.94-1.69 3.36-.14.43-.18.4 1.34 1.02.92.37 1.18.5 1.21.64.03.1.1.64.17 1.22.07.57.15 1.09.2 1.15.04.1.24-.17.75-.95a54 54 0 0 0 2.5-4.3c0-.11-1.6-1.48-2.76-2.34-.73-.55-.98-.66-1.2-.5"/>
    <path d="M58.71 50.76c-.31.34-1.33 2.12-4.51 7.95-1.76 3.2-1.81 3.33-1.5 3.92.07.15 1.27 1.57 2.65 3.15 3.93 4.47 4.88 5.59 6.16 7.24l1.68 2.12c.54.67.75 1.06.87 1.55.1.45-.19 1.6-1.74 6.9-1.98 6.8-2.62 9.2-2.84 10.62-.16 1.08-.15 1.38.04 1.58.08.1.2.39.29.65.23.84.69 2 .94 2.4.3.48 1.2 1.34 1.8 1.72.69.43 1.63.82 2.7 1.1 1.57.42 1.74.49 1.96.8.17.24.19.35.15.68-.03.23-.09.45-.15.5-.25.23-1.74.6-3.12.76-.83.1-1.5.03-2.42-.25-.84-.25-2.6-.29-4.68-.11-3.12.27-4.31 0-4.6-1.08-.12-.42-.06-.78.24-1.7.13-.39.37-1.3.56-2.04.35-1.46.59-2.06.83-2.13.2-.07.45-.56.65-1.32.35-1.4.4-5.95.08-7.73a7 7 0 0 1-.05-2.76c.33-2.34 1.11-4.31 2.17-5.5.25-.27.47-.57.5-.66.14-.45-.57-1.1-1.93-1.8a22 22 0 0 1-3.53-2.3 8 8 0 0 0-1.02-.74 293 293 0 0 1 .72 11.22c0 .81 0 .87-.3 1.48a6 6 0 0 1-1.99 2.1c-.32.22-1.7.95-3.08 1.63-5.68 2.83-11.12 6.14-12.33 7.51q-.7.82-.7 2.06c0 .63.02.73.28 1.22.59 1.08 2.67 2.8 3.73 3.1.68.18 1.45.56 1.81.89.85.77.26 1.47-1.4 1.67-2.03.24-5.13-.26-8.11-1.3-1.05-.36-1.87-.52-1.87-.36s2.21 2.64 3.61 4.07a50 50 0 0 0 6.25 5.49 53.64 53.64 0 0 0 65.31-1.04 51 51 0 0 0 4.67-4.2l1.46-1.46h-.36c-1.32 0-1.69-1.47-.97-3.87.2-.66.21-2.5.03-3.48a8 8 0 0 0-.62-1.92 1 1 0 0 0-.46-.22c-.84-.28-1.23-.87-1.07-1.6.1-.46-.04-.76-.72-1.44-.97-.98-2.5-1.84-5.96-3.39-6.69-2.98-8.26-4.01-9.18-6.06-.31-.68-.31-.68-.3-1.7.01-.96.04-1.08.52-2.85.77-2.91 1.45-5.9 1.36-6a128 128 0 0 1-7.7 3.24l-2 .8.43.65a10 10 0 0 1 1.56 3.84c.2 1.17.18 3.54-.06 5.18a12 12 0 0 0-.14 2.82c.06 1.7.2 3.12.45 4.44.18.91.17.88.43 1.01.22.1.52 1.03.8 2.4.08.46.23 1.12.32 1.45.25.86.2 1.74-.13 2.39l-.23.48-.53.05c-.72.08-2.4 0-3.8-.18a8 8 0 0 0-3.04.01 10 10 0 0 1-4.06-.16 15 15 0 0 1-2.85-.94c-.42-.26-.16-1.24.4-1.52.17-.09.7-.19 1.32-.26 2.93-.33 4.8-.94 5.92-1.93.35-.31.43-.42.48-.75.03-.22.16-.72.29-1.12s.23-.9.23-1.1c0-.8-.62-3.5-1.3-5.6a41 41 0 0 1-1.66-7.8c-.15-1.22-.35-2.77-.45-3.43s-.18-1.67-.19-2.2l-.01-1.01-.42-.37c-.32-.3-.59-.71-1.28-1.96a35 35 0 0 0-1.24-2.1 371 371 0 0 0-7.1-9.59c-.58-.6-1.14-.87-2.71-1.28-1.65-.43-2.41-.7-2.41-.85 0-.07.3-.23.74-.4.8-.3 1.08-.5 1.08-.74 0-.08-.22-.58-.48-1.12-.45-.89-.61-1.43-.4-1.36l1.23.84c1.3.92 1.65 1.09 2.3 1.09.5 0 3-.6 4.15-1 .7-.24.75-.26.83-.54.05-.15.11-.77.13-1.37.06-1.42 0-1.61-.66-1.9a180 180 0 0 0-6.7-2.33 39 39 0 0 0-3.66-1.02c-.12 0-.3.08-.39.17"/>
    <path d="M75.36 52.42c-.87 1.37-4.1 6.77-4.4 7.41-.33.66-.33.85-.02.98.6.24 3.26 1.09 3.43 1.09.2 0 .42-.28 1.88-2.33 1.8-2.52 3.3-4.73 3.36-4.95.07-.25-3.29-2.9-3.67-2.9-.07 0-.33.31-.58.7m5.39 4.04c-.6.74-3.18 4.3-3.94 5.41a4 4 0 0 0-.55 1.03c.04.11 1.63 1.51 2.09 1.84l.22.15 1.72-1.76a61 61 0 0 0 3.95-4.25c.02-.06-.11-.29-.28-.51-.4-.54-2.46-2.45-2.63-2.45-.07 0-.33.24-.58.54M67.27 59.7c-1.03.3-1.45.37-2.05.4-1 .02-1.3.24-.7.5.37.14 3.06.74 3.38.74.18 0 .3-.1.63-.55.43-.59.7-1.14.62-1.35-.08-.19-.47-.13-1.88.26"/>
    <path d="M67.58 62.36q-.19.04-.19.2c0 .22 1.19 1.88 4.37 6.13 2.52 3.37 2.66 3.58 3.4 4.98.41.82.8 1.48.84 1.48.19 0 4.52-4.2 6.12-5.95l.6-.66.12-.87c.24-1.78.36-4.1.24-4.71-.04-.14-.1-.25-.16-.25s-.9.7-1.87 1.58c-2.15 1.92-2.52 2.22-2.84 2.22-.3 0-.7-.26-2.1-1.37a8 8 0 0 0-3.32-1.78c-2.3-.79-4.3-1.18-5.21-1m39.91-45.94a69 69 0 0 0-1.86 2.6c0 .1 1.37 1.1 1.43 1.04l1.4-1.9 1.35-1.83.36.11c.34.1 1.04.55 1.26.81q.08.12.05.32c-.03.1-.64.98-1.35 1.95-.71.96-1.31 1.77-1.32 1.81s.3.31.69.6l.7.53 1.48-2c1.72-2.32 1.89-2.6 1.83-3.03-.06-.41-.22-.64-.8-1.1-.8-.62-1.06-.73-1.75-.73h-.6l.2-.28c.12-.15.22-.3.22-.35-.01-.05-1.23-.99-1.37-1.05a52 52 0 0 0-1.92 2.5m-81.35-1.85c-.37.27-.67.53-.68.57 0 .04 4.86 6.43 5.12 6.71.07.07 1.45-.9 1.45-1.03 0-.07-5.09-6.71-5.17-6.74-.03-.01-.36.2-.72.49m-3.77 3.76c-.37.2-3.96 3.53-3.96 3.66 0 .05 4 4.3 5.18 5.5l.38.4 1.88-1.78c1.03-.98 1.94-1.9 2.04-2.05q.42-.69.07-1.45a4.3 4.3 0 0 0-1.47-1.6c-.4-.2-.69-.2-1.08-.04-.16.06-.31.11-.33.1-.01-.02.04-.16.1-.33.26-.61.07-1.15-.65-1.87-.8-.8-1.46-.95-2.16-.54m.96 2.14c.67.7.67.69-.39 1.68l-.92.87-.59-.58a4 4 0 0 1-.59-.67 9 9 0 0 1 1.92-1.73c.1 0 .33.17.57.43m2.35 2.35q.52.53.51.73c0 .14-.21.4-.9 1.03l-.95.86c-.04 0-.36-.3-.72-.7l-.67-.72.9-.86c.67-.62.97-.86 1.12-.86q.2-.01.71.52m90.17-2.67a9 9 0 0 0-2.68 2.74c-.17.4-.15.93.03 1.24a8 8 0 0 0 1.42 1.38c.1.06.42.13.7.17l.53.07-.62.62a4 4 0 0 1-.7.62 7 7 0 0 1-1.48-1.35c0-.06.04-.19.08-.27.07-.13 0-.24-.5-.72-.57-.53-.6-.55-.75-.42-.27.24-.62.84-.62 1.1 0 .43.26.74 1.61 2.02 1.4 1.32 1.67 1.49 2.22 1.39.15-.03.46-.2.68-.4.47-.38 4.82-4.87 4.82-4.97 0-.03-.28-.33-.6-.66l-.62-.6-.24.23c-.26.25-.27.25-.36-.32-.08-.48-.22-.69-.86-1.28-.87-.82-1.3-.94-2.06-.59m1.55 2.09c.25.23.52.56.61.74l.16.3-.31.35a8 8 0 0 1-1.47 1.42c-.3 0-1.22-.72-1.44-1.13-.16-.3 0-.57.8-1.4.87-.88.99-.9 1.65-.28M16.9 26.8a69.1 69.1 0 0 0-7.43 80.02 70 70 0 0 0 18.18 20.4l1.07.8.2-.23c.1-.12.32-.44.5-.69l.33-.45-1.2-.9a72 72 0 0 1-11.81-11.46A67 67 0 0 1 2.2 79.47a54 54 0 0 1-.38-7.55c.01-3.76.1-5.28.5-8.4a67 67 0 0 1 15.21-34.78l1.28-1.52.2-.24-.48-.42c-.9-.79-.7-.82-1.63.25m105.11.92c-.9.75-.9.56 0 1.64A67.7 67.7 0 0 1 136.3 61c.67 4.05.86 6.47.86 11.03s-.22 7.36-.9 11.3a67 67 0 0 1-21.88 39.2c-1.03.9-3.33 2.78-3.76 3.08a8 8 0 0 0 1.04 1.33 68.5 68.5 0 0 0 26.71-46.06c.44-3.46.5-4.45.5-8.85 0-4.31-.06-5.43-.46-8.52A69 69 0 0 0 122.6 27.4c-.08-.06-.22 0-.58.32m-86.18 98.8c-.8.64-6.07 5.2-6.07 5.26 0 .04.35.28.77.53l.78.46.38-.32.59-.54c.11-.12.3-.3.42-.37l.2-.16 1.18.7 1.17.71c.01 0-.09.43-.22.94-.13.5-.24.97-.24 1.02a6 6 0 0 0 1.7 1.02c.04-.03.31-1.14.6-2.45l.9-3.98a6 6 0 0 0 .29-1.79 7 7 0 0 0-2.04-1.26c-.07 0-.26.1-.41.22m.55 1.94-.38 1.48-.37 1.36a8 8 0 0 1-1.55-.97c.05-.14 2.13-2 2.24-2q.09 0 .06.13m68.69-.9c-1.15.6-1.41.87-1.71 1.72l-.1.3-.21-.35-.22-.34-.75.45-.77.47c-.01.02 3.2 5.38 3.26 5.45.05.05 1.6-.88 1.55-.94l-1.18-1.96-1.2-1.95c-.1-.2 1.2-1.2 1.58-1.2.23 0 .28.07 1.52 2.14l1.14 1.89c0 .01.37-.18.8-.43l.77-.45-1.34-2.2a64 64 0 0 0-1.46-2.36c-.44-.5-1.03-.58-1.68-.24m-7.3 3.99a18 18 0 0 0-2.89 1.36c-.6.5-.6 1.15-.02 2.65.9 2.3 1.6 3.12 2.57 3a18 18 0 0 0 3.26-1.4c.62-.46.66-1.23.16-2.53-.7-1.8-1.38-2.88-1.97-3.12-.35-.16-.63-.14-1.12.04m.83 2.42c.52 1.03.87 1.98.8 2.15-.04.12-1.24.72-1.63.82-.24.05-.42-.2-.9-1.28q-.72-1.58-.63-1.8a5 5 0 0 1 1.7-.75c.22.02.27.09.66.86m-56.95-2.38c-.66.29-1.51 2-1.33 2.66.1.37.24.47 1.6 1.26.64.39 1.2.75 1.26.82.11.18-.21.88-.4.87-.09 0-.53-.17-1-.38-.8-.37-.86-.4-.85-.63 0-.12.03-.29.07-.36.04-.1-.1-.19-.64-.42l-.75-.3c-.04 0-.15.25-.25.55-.42 1.28-.29 1.44 1.9 2.38.89.38 1.72.72 1.87.75.37.07.8-.16 1.1-.6.37-.53.79-1.6.79-2 0-.47-.23-.67-1.7-1.51-1.3-.74-1.37-.83-1.1-1.35.17-.32.28-.3 1.29.16l.71.33-.04.35-.06.34.67.29c.37.14.7.28.72.3.06.02.26-.5.4-1.02q.16-.7-.33-1.07c-.32-.23-3.1-1.44-3.42-1.5a1 1 0 0 0-.5.08m48.29.43-.87.3c-.02.01.09.34.23.75l.24.73.87-.28c.47-.16.89-.3.91-.34.08-.06-.35-1.4-.45-1.43-.05 0-.46.11-.93.27m.77 2.3-.77.27c-.02.03 1.93 5.94 2 6.02a9 9 0 0 0 1.65-.55c0-.2-2-6-2.07-6-.04 0-.4.12-.81.26m-5.88 0c-.38.09-.7.17-.72.19l.15.71.16.78c0 .04-.2.11-.44.17-.25.06-.45.14-.45.19l.15.65c.16.62.17.63.83.5l.3-.07.38 1.6c.5 2.1.65 2.55.89 2.77.26.25.77.3 1.42.14.58-.16 1.54-.6 1.6-.75a4 4 0 0 0-.25-1.05c-.02-.03-.3.02-.64.1-.33.07-.66.12-.72.09a5 5 0 0 1-.5-1.6c-.2-.87-.38-1.6-.38-1.66s.33-.18.72-.27l.72-.18-.17-.65-.17-.7c-.02 0-.32.06-.68.15-.35.1-.69.17-.73.17s-.16-.34-.26-.73c-.2-.84-.13-.8-1.21-.55m-36.17.27c-.33.28-.62.86-.82 1.64-.3 1.16-.15 1.35 1.7 2.15.72.3 1.33.58 1.36.62.06.11-.04.68-.17.85-.12.16-.02.17-1.49-.27l-.67-.2.02-.37.03-.38-.73-.2c-.85-.26-.79-.3-.94.63-.08.45-.08.6.04.84.16.4.5.55 2.54 1.16 1.46.42 1.6.45 1.9.36q.32-.09.55-.42a6 6 0 0 0 .7-2.03c.05-.43.04-.46-.22-.73a5 5 0 0 0-1.55-.83c-.7-.3-1.31-.59-1.37-.65-.11-.14-.03-.63.14-.8.12-.12.27-.1 1.48.3l.51.16-.04.34-.05.33.66.2.77.22c.13.05.38-1.11.32-1.46-.05-.27-.27-.52-.58-.68a27 27 0 0 0-3.52-.99 1 1 0 0 0-.57.21m23.5.58-.63.03v.39l.05.77.05.37h1.92v-.44c0-.23-.02-.6-.04-.8l-.06-.38-.33.02zm-15.6 1.35c-.6.27-.9.87-1.21 2.51-.37 1.94-.34 2.7.14 3.24.3.33.6.43 2.41.73 1.55.26 1.81.23 2.27-.18.47-.42.76-1.3 1.02-3.13.2-1.39.14-1.86-.3-2.36-.3-.34-.43-.38-2.15-.68-1.56-.27-1.82-.29-2.18-.13m1.98 1.55a4 4 0 0 1 .9.22c.13.1.08.61-.17 2-.2 1.08-.32 1.37-.58 1.37a5 5 0 0 1-1.74-.4c-.13-.14-.1-.41.15-1.85.18-1.06.33-1.47.53-1.47zm19.88-.98c-.69.1-1.38.24-1.52.32-.44.22-.59.55-.59 1.31v.67h.25c.12 0 .5-.04.85-.08l.6-.1v-.26c0-.15.05-.3.12-.36.14-.1 1.5-.3 1.69-.23q.13.05.21.57c.15.84.2.79-.65.79a7 7 0 0 0-2.29.36c-.42.2-.62.53-.67 1.08a4 4 0 0 0 .3 1.88c.25.48.53.59 1.46.52 1.01-.06 1.45-.2 1.94-.6l.4-.33.07.3q.06.32.22.29c.91-.1 1.58-.22 1.58-.31 0-.2-.57-4.37-.65-4.8-.26-1.27-.68-1.4-3.32-1.02m1.9 3.89c.1.7.09.73-.38.95a3 3 0 0 1-1 .26c-.67.06-.7.03-.79-.6-.06-.5.16-.7.8-.78.4-.05 1-.14 1.26-.2.04 0 .08.17.1.37m-15.44-3.45c-.9.28-1.22 1.24-1.24 3.72-.01 1.4.06 1.7.45 2.15.14.16.38.3.55.36.4.11 2.97.26 3.39.2.7-.1 1.04-.64 1.13-1.74l.05-.62-.8-.04q-.8-.03-.86.05a1 1 0 0 0-.07.39c0 .49-.13.54-1.04.49a4 4 0 0 1-.87-.12c-.17-.13-.2-.57-.12-1.84.06-.89.12-1.3.2-1.44.14-.18.16-.19.84-.14 1.08.07 1.04.06 1.1.53l.07.45c.02 0 .37.05.8.07l.78.06.06-.36a3 3 0 0 0-.24-1.55c-.22-.32-.5-.45-1.16-.53-.94-.1-2.79-.16-3.02-.1m7.16.07-.35.03.04.47c.03.25.1 1.63.13 3.08.05 1.45.1 2.68.13 2.74.03.09.2.1.87.06.45-.03.83-.07.86-.1.04-.04-.15-5.71-.2-6.08l-.04-.25-.55.01z"/>
  </g>
</svg>