<svg xmlns="http://www.w3.org/2000/svg" version="1.1" xmlns:xlink="http://www.w3.org/1999/xlink" width="1000" height="1000"><style>
    #light-icon {
      display: inline;
    }
    #dark-icon {
      display: none;
    }

    @media (prefers-color-scheme: dark) {
      #light-icon {
        display: none;
      }
      #dark-icon {
        display: inline;
      }
    }
  </style><g id="light-icon"><svg xmlns="http://www.w3.org/2000/svg" version="1.1" xmlns:xlink="http://www.w3.org/1999/xlink" width="1000" height="1000"><g><g transform="matrix(0.5837711617046117,0,0,0.5837711617046117,5.684341886080802e-14,18.388791593695316)"><svg xmlns="http://www.w3.org/2000/svg" version="1.1" xmlns:xlink="http://www.w3.org/1999/xlink" width="1713" height="1650"><svg xmlns="http://www.w3.org/2000/svg" xml:space="preserve" overflow="hidden" viewBox="0 0 1713 1650">
  <defs>
    <clipPath id="a">
      <path d="M1344 413h1713v1650H1344z"></path>
    </clipPath>
  </defs>
  <g fill-rule="evenodd" clip-path="url(#a)" transform="translate(-1344 -413)">
    <path d="M1644 413h1116c46 0 46 0 65 3l13 3h3a272 272 0 0 1 215 272v1101q1 26-5 52l-1 2q-16 74-67 129l-4 5-2 2h-1l-1 2-3 3-9 8q-10 9-21 16l-2 2q-31 22-66 34l-2 1q-39 14-79 15H1617c-62 0-124-22-172-62l-1-1-24-22-16-18-1-2q-58-74-59-167V684q0-27 6-54v-3l9-31q20-56 62-99l2-2 23-21 3-2q56-44 126-56h2q34-4 67-3"></path>
    <path fill="#fefefe" d="M1794 681h936c0 72 0 72-10 92l-6 13-15 31-5 9-47 91-7 14-1 3-16 30-1 2-11 23-2 2-6 14-11 20-1 2-17 33-16 31-1 2-11 22-6 12-15 29-11 21-2 4-1 1-3 8-2 4-25 48-7 14-2 3-12 24-4 8-1 1-12 24-17 33-17 33-1 2-8 16-9 18-1 2-17 33-15 29-30 58-22 43-8 16-1 1-39 77-1 1-6 13-2 3-24 46-11 22-5 10-2 4-19 35h-409l10-15 2-2 1-3 4-5 2-3 7-10 17-25 9-13 11-16 17-24 12-17 32-46 13-18a1665 1665 0 0 0 75-116l56-91 12-20 2-2 7-12 18-29 43-70 11-18 13-22 6-9 3-5 52-82 59-96 4-7 3-4 3-5 2-3c8-11 21-12 34-14l3-1a911 911 0 0 1 96-14l22-3 3-1c9-1 9-1 16-6l4-8 10-25h-52l-4-1q-4 1-7-3l-1-6v-12l1-11v-34h-52v56h-12l-2-4V819h-63v121h-12v-72h-55v70h-420z"></path>
  </g>
</svg></svg></g></g></svg></g><g id="dark-icon"><svg xmlns="http://www.w3.org/2000/svg" version="1.1" xmlns:xlink="http://www.w3.org/1999/xlink" width="1000" height="1000"><g><g transform="matrix(0.5837711617046117,0,0,0.5837711617046117,5.684341886080802e-14,18.388791593695316)"><svg xmlns="http://www.w3.org/2000/svg" version="1.1" xmlns:xlink="http://www.w3.org/1999/xlink" width="1713" height="1650"><svg xmlns="http://www.w3.org/2000/svg" xml:space="preserve" overflow="hidden" viewBox="0 0 1713 1650">
  <defs>
    <clipPath id="a">
      <path d="M1344 413h1713v1650H1344z"></path>
    </clipPath>
  </defs>
  <g fill-rule="evenodd" clip-path="url(#a)" transform="translate(-1344 -413)">
    <path fill="#fff" d="M1644 413h1116c46 0 46 0 65 3l13 3h3a272 272 0 0 1 215 272v1101q1 26-5 52l-1 2q-16 74-67 129l-4 5-2 2h-1l-1 2-3 3-9 8q-10 9-21 16l-2 2q-31 22-66 34l-2 1q-39 14-79 15H1617c-62 0-124-22-172-62l-1-1-24-22-16-18-1-2q-58-74-59-167V684q0-27 6-54v-3l9-31q20-56 62-99l2-2 23-21 3-2q56-44 126-56h2q34-4 67-3"></path>
    <path d="M1794 681h936c0 72 0 72-10 92l-6 13-15 31-5 9-47 91-7 14-1 3-16 30-1 2-11 23-2 2-6 14-11 20-1 2-17 33-16 31-1 2-11 22-6 12-15 29-11 21-2 4-1 1-3 8-2 4-25 48-7 14-2 3-12 24-4 8-1 1-12 24-17 33-17 33-1 2-8 16-9 18-1 2-17 33-15 29-30 58-22 43-8 16-1 1-39 77-1 1-6 13-2 3-24 46-11 22-5 10-2 4-19 35h-409l10-15 2-2 1-3 4-5 2-3 7-10 17-25 9-13 11-16 17-24 12-17 32-46 13-18a1665 1665 0 0 0 75-116l56-91 12-20 2-2 7-12 18-29 43-70 11-18 13-22 6-9 3-5 52-82 59-96 4-7 3-4 3-5 2-3c8-11 21-12 34-14l3-1a911 911 0 0 1 96-14l22-3 3-1c9-1 9-1 16-6l4-8 10-25h-52l-4-1q-4 1-7-3l-1-6v-12l1-11v-34h-52v56h-12l-2-4V819h-63v121h-12v-72h-55v70h-420z"></path>
  </g>
</svg></svg></g></g></svg></g></svg>