<svg width="952" height="1131" xmlns="http://www.w3.org/2000/svg" xmlns:xlink="http://www.w3.org/1999/xlink" xml:space="preserve" overflow="hidden"><g transform="translate(-1779 -681)"><path d="M1793.52 681.072C2102.59 681.072 2411.67 681.072 2730.12 681.072 2730.12 753.046 2730.12 753.046 2720.22 772.839 2717.18 779.211 2717.18 779.211 2714.14 785.586 2709.08 796.2 2703.81 806.706 2698.54 817.217 2697.06 820.166 2695.59 823.117 2694.12 826.068 2688.24 837.833 2682.32 849.564 2676.15 861.179 2673.97 865.284 2671.89 869.432 2669.84 873.603 2667.06 879.267 2664.16 884.86 2661.21 890.437 2656.49 899.367 2651.89 908.355 2647.31 917.356 2644.94 922.016 2642.56 926.673 2640.19 931.331 2639.72 932.253 2639.25 933.175 2638.76 934.124 2634.82 941.851 2630.86 949.566 2626.88 957.274 2625.66 959.633 2624.44 961.992 2623.23 964.352 2622.92 964.938 2622.62 965.524 2622.31 966.128 2618.4 973.704 2614.52 981.29 2610.63 988.875 2610.25 989.608 2609.88 990.341 2609.49 991.096 2607.2 995.568 2604.9 1000.04 2602.61 1004.51 2599.19 1011.18 2595.77 1017.85 2592.35 1024.52 2591.98 1025.25 2591.6 1025.98 2591.22 1026.73 2585.61 1037.67 2580 1048.6 2574.37 1059.52 2569.04 1069.9 2563.71 1080.27 2558.39 1090.65 2558.02 1091.38 2557.64 1092.1 2557.26 1092.85 2553.4 1100.37 2549.54 1107.9 2545.69 1115.43 2543.72 1119.28 2541.75 1123.13 2539.77 1126.98 2539.39 1127.72 2539.01 1128.46 2538.62 1129.23 2534 1138.24 2529.37 1147.26 2524.62 1156.21 2521.02 1163.01 2517.62 1169.91 2514.19 1176.8 2513.57 1178.05 2512.94 1179.29 2512.32 1180.54 2511.86 1181.47 2511.86 1181.47 2511.39 1182.41 2510.13 1184.95 2508.87 1187.48 2507.6 1190.01 2506.97 1191.28 2506.34 1192.55 2505.71 1193.82 2501.71 1201.86 2497.62 1209.84 2493.42 1217.78 2489.17 1225.82 2485.04 1233.93 2480.92 1242.04 2478.55 1246.69 2476.17 1251.34 2473.8 1256 2473.33 1256.92 2472.85 1257.85 2472.37 1258.8 2468.26 1266.86 2464.12 1274.91 2459.98 1282.96 2458.68 1285.48 2457.38 1288 2456.09 1290.52 2455.77 1291.15 2455.44 1291.77 2455.11 1292.41 2451.1 1300.2 2447.11 1308 2443.11 1315.8 2437.42 1326.9 2431.72 1337.99 2426.02 1349.09 2420.35 1360.1 2414.69 1371.12 2409.03 1382.15 2408.66 1382.88 2408.29 1383.61 2407.9 1384.36 2405.24 1389.54 2402.58 1394.73 2399.92 1399.92 2396.89 1405.84 2393.85 1411.76 2390.81 1417.69 2390.44 1418.42 2390.07 1419.14 2389.68 1419.9 2384.08 1430.83 2378.46 1441.75 2372.84 1452.68 2367.81 1462.45 2362.79 1472.23 2357.78 1482.02 2336.22 1524.07 2336.22 1524.07 2327.7 1540.2 2320.21 1554.4 2312.79 1568.64 2305.66 1583.03 2303.09 1588.21 2300.5 1593.4 2297.92 1598.58 2297.62 1599.17 2297.33 1599.76 2297.02 1600.37 2293.17 1608.08 2289.26 1615.75 2285.21 1623.36 2282.58 1628.32 2280.05 1633.31 2277.56 1638.33 2274.37 1644.75 2271.1 1651.12 2267.74 1657.45 2264.36 1663.84 2261.03 1670.26 2257.71 1676.68 2257.43 1677.23 2257.14 1677.78 2256.85 1678.35 2254.76 1682.4 2252.66 1686.46 2250.57 1690.51 2249.97 1691.68 2249.36 1692.85 2248.76 1694.02 2241.3 1708.48 2233.87 1722.94 2226.45 1737.41 2226.07 1738.14 2225.7 1738.87 2225.32 1739.62 2221.45 1747.16 2217.58 1754.71 2213.71 1762.26 2212.13 1765.35 2210.55 1768.43 2208.97 1771.52 2208.23 1772.95 2207.5 1774.39 2206.76 1775.83 2200.73 1787.61 2194.61 1799.34 2188.49 1811.07 2053.4 1811.07 1918.31 1811.07 1779.12 1811.07 1786.2 1799.94 1786.2 1799.94 1788.83 1796.19 1789.41 1795.36 1789.99 1794.53 1790.59 1793.68 1791.18 1792.83 1791.78 1791.98 1792.39 1791.11 1793.67 1789.28 1794.95 1787.45 1796.23 1785.62 1796.85 1784.74 1797.46 1783.85 1798.1 1782.94 1800.33 1779.74 1802.55 1776.51 1804.76 1773.29 1810.54 1764.85 1816.39 1756.47 1822.23 1748.08 1825.26 1743.74 1828.28 1739.39 1831.3 1735.05 1834.95 1729.8 1838.6 1724.55 1842.26 1719.31 1847.9 1711.2 1853.54 1703.09 1859.12 1694.94 1862.95 1689.37 1866.84 1683.83 1870.72 1678.3 1873.95 1673.69 1877.16 1669.07 1880.34 1664.42 1884.59 1658.22 1888.89 1652.06 1893.21 1645.91 1896.44 1641.3 1899.65 1636.68 1902.83 1632.04 1907.08 1625.83 1911.39 1619.68 1915.7 1613.52 1919.34 1608.34 1922.93 1603.14 1926.51 1597.92 1929.31 1593.84 1932.14 1589.78 1934.99 1585.73 1943.64 1573.42 1951.9 1561.02 1959.68 1548.15 1963.05 1542.57 1966.47 1537.04 1969.97 1531.55 1974.2 1524.9 1978.28 1518.17 1982.32 1511.41 1985.04 1506.86 1987.79 1502.36 1990.66 1497.92 2000.54 1482.56 2010.23 1467.07 2019.6 1451.39 2028.48 1436.52 2037.49 1421.73 2046.7 1407.06 2050.79 1400.54 2054.84 1393.99 2058.88 1387.43 2059.47 1386.47 2060.06 1385.5 2060.68 1384.5 2063.12 1380.53 2065.55 1376.56 2067.99 1372.59 2080.06 1352.93 2080.06 1352.93 2085.87 1343.8 2090.62 1336.33 2095.21 1328.77 2099.79 1321.19 2104.81 1312.89 2109.91 1304.63 2115.08 1296.4 2119.84 1288.8 2124.55 1281.16 2129.25 1273.51 2132.94 1267.51 2136.64 1261.51 2140.36 1255.52 2144.72 1248.48 2149.06 1241.43 2153.4 1234.38 2155.23 1231.41 2157.06 1228.44 2158.88 1225.47 2159.97 1223.7 2161.06 1221.93 2162.15 1220.16 2167.81 1210.96 2173.54 1201.8 2179.38 1192.71 2191.08 1174.48 2202.45 1156.05 2213.67 1137.51 2229.79 1110.87 2246.12 1084.36 2262.79 1058.06 2266.15 1052.73 2269.47 1047.38 2272.78 1042.01 2274.23 1039.68 2275.68 1037.34 2277.13 1035 2277.98 1033.62 2278.83 1032.25 2279.68 1030.86 2280.74 1029.12 2281.82 1027.38 2282.91 1025.65 2283.49 1024.7 2284.07 1023.76 2284.67 1022.78 2292.8 1011.89 2306.46 1010.76 2318.95 1008.56 2320.12 1008.35 2321.29 1008.14 2322.49 1007.93 2337.95 1005.21 2353.4 1002.8 2368.98 1000.88 2377.23 999.856 2385.43 998.613 2393.63 997.253 2401.65 995.924 2409.68 994.667 2417.75 993.655 2425.31 992.694 2432.87 991.703 2440.41 990.618 2441.4 990.487 2442.38 990.356 2443.39 990.221 2452.01 988.99 2452.01 988.99 2458.67 983.699 2459.78 981.979 2460.73 980.235 2461.67 978.416 2462.01 977.778 2462.35 977.139 2462.7 976.481 2467.05 968.247 2470.19 959.895 2472.8 950.976 2471.87 950.983 2471.87 950.983 2470.92 950.99 2457.72 951.076 2444.52 951.023 2431.33 950.739 2429.89 950.71 2428.45 950.685 2427.02 950.665 2424.99 950.635 2422.96 950.588 2420.93 950.537 2419.76 950.513 2418.59 950.49 2417.39 950.466 2414.01 950.037 2412.45 949.528 2409.82 947.377 2409.28 944.628 2409.28 944.628 2409.31 941.207 2409.31 940.584 2409.31 939.96 2409.31 939.318 2409.31 937.258 2409.35 935.2 2409.38 933.141 2409.39 931.712 2409.4 930.284 2409.4 928.856 2409.42 925.097 2409.46 921.339 2409.51 917.581 2409.57 913.071 2409.59 908.561 2409.61 904.051 2409.66 897.2 2409.74 890.351 2409.82 883.5 2392.6 883.5 2375.38 883.5 2357.64 883.5 2357.64 902.204 2357.64 920.909 2357.64 940.18 2353.78 940.18 2349.92 940.18 2345.94 940.18 2344.14 938.381 2344.14 938.381 2343.92 936.291 2343.92 935.41 2343.92 934.529 2343.93 933.622 2343.92 932.108 2343.92 932.108 2343.92 930.563 2343.92 929.451 2343.93 928.338 2343.94 927.192 2343.94 926.025 2343.94 924.857 2343.94 923.655 2343.94 920.448 2343.95 917.242 2343.96 914.036 2343.97 910.687 2343.97 907.338 2343.97 903.989 2343.98 897.645 2343.99 891.301 2344.01 884.958 2344.04 876.387 2344.05 867.816 2344.06 859.245 2344.07 845.737 2344.11 832.23 2344.14 818.723 2323.36 818.723 2302.57 818.723 2281.16 818.723 2281.16 858.804 2281.16 898.885 2281.16 940.18 2277 940.18 2272.85 940.18 2268.57 940.18 2268.57 916.428 2268.57 892.677 2268.57 868.205 2250.45 868.205 2232.34 868.205 2213.68 868.205 2213.68 891.363 2213.68 914.521 2213.68 938.381 2075.03 938.381 1936.37 938.381 1793.52 938.381 1793.52 853.469 1793.52 768.557 1793.52 681.072Z" fill-rule="evenodd"/></g></svg>