<svg xmlns="http://www.w3.org/2000/svg" xml:space="preserve" overflow="hidden" style="max-height:500px" viewBox="0 268 4301 1473">
  <path fill-rule="evenodd" d="M277 588h684c0 53 0 53-7 67l-5 9-11 23-37 74-15 29-3 5-1 1-8 17-1 1-5 10-8 15v1l-24 47-1 2-9 16-4 9-1 1-10 20-8 15-1 3-1 1-13 26-9 18-5 10-1 2-9 17-3 6-1 1-9 17-25 49v2l-6 11-7 13-1 1-23 46-22 42-44 86-7 14-1 1-4 9-2 3-16 31-1 2-8 16-4 7-1 3-14 26H266l7-11 1-2 2-2 3-4 1-1 5-8 13-18 6-9 8-12 13-18 8-12 23-34 10-13a1240 1240 0 0 0 76-119l29-46 1-2 5-9 13-21 32-51 22-35 2-4 38-61 43-69 3-6 4-6 2-2c5-8 15-9 25-11h2l70-11 16-2h3c6-1 6-1 11-5l2-4 1-1 7-19h-1l-45-3v-46h-38v41h-9l-1-3v-85h-46v88h-9v-52h-40v51H277z"/>
  <text font-family="Audiowide,Audiowide_MSFontService,sans-serif" font-size="1146" font-weight="700" transform="translate(916 1411)">HWC</text>
</svg>
